<svg width="30" height="30" viewBox="0 0 30 30" fill="none" xmlns="http://www.w3.org/2000/svg">
<path d="M0 0V30H30V0H0ZM2.72727 2.72727H27.2727V27.2727H2.72727V2.72727ZM5.45455 8.68636V20.4273H11.1545C13.2818 20.4136 15.2864 19.3909 15.2864 17.0045C15.2864 15.5182 14.5773 14.2636 13.1455 13.8545C14.1955 13.3364 14.7409 12.7636 14.7409 11.5909C14.7409 9.24545 13.0091 8.68636 10.9909 8.68636H5.45455ZM17.9182 9.54545V10.7045H22.6636V9.54545H17.9182ZM8.04545 10.4864H10.4727C11.3864 10.4864 12.2318 10.7455 12.2318 11.8227C12.2318 12.8182 11.5773 13.2273 10.65 13.2273H8.04545V10.4864ZM20.4 11.4955C17.8227 11.4955 16.0636 13.4182 16.0636 15.9818C16.0636 18.6273 17.7136 20.4545 20.4 20.4545C22.4318 20.4545 23.7545 19.5409 24.3818 17.5909H22.3227C22.0909 18.3136 21.1909 18.6955 20.4818 18.6955C19.1045 18.6955 18.3955 17.8909 18.3955 16.5409H24.5182C24.5318 16.4045 24.5455 16.2409 24.5455 16.0909C24.5455 13.5818 23.0591 11.4955 20.4 11.4955ZM20.3182 13.2409C21.5045 13.2409 22.0909 13.9364 22.1864 15.0682H18.3955C18.4636 13.95 19.2 13.2409 20.3182 13.2409ZM8.03182 15.1773H10.8545C11.9864 15.1773 12.7091 15.6545 12.7091 16.8682C12.7091 18.0409 11.85 18.4091 10.8 18.4091H8.03182V15.1773Z" fill="#121212"/>
</svg>
