<svg width="162" height="40" viewBox="0 0 162 40" fill="none" xmlns="http://www.w3.org/2000/svg">
<path d="M19.9936 14.7092C21.0264 14.7092 21.8469 14.8952 22.4551 15.2671C23.0748 15.6158 23.5224 16.2434 23.7978 17.1499C24.0732 18.0565 24.2109 19.335 24.2109 20.9854C24.2109 22.7055 24.0445 24.0188 23.7117 24.9254C23.3904 25.8087 22.8568 26.3201 22.1109 26.4596V26.6339C23.0289 26.7966 23.6716 27.4242 24.0388 28.5167C24.406 29.6093 24.5896 31.1202 24.5896 33.0495C24.5896 34.6999 24.4462 35.9784 24.1593 36.8849C23.8839 37.7915 23.4478 38.4307 22.851 38.8027C22.2543 39.1513 21.4854 39.3257 20.5444 39.3257C19.7756 39.3257 19.1042 39.314 18.5305 39.2908C17.9682 39.2908 17.446 39.2676 16.964 39.2211C16.4935 39.1746 16.0058 39.1165 15.5009 39.0467V14.9881C15.9484 14.8952 16.3845 14.8371 16.8091 14.8138C17.2452 14.7673 17.7157 14.7441 18.2206 14.7441C18.7255 14.7208 19.3165 14.7092 19.9936 14.7092ZM19.8559 18.5795C19.5116 18.5795 19.1903 18.5795 18.8919 18.5795C18.5936 18.5795 18.3182 18.5795 18.0657 18.5795V24.8905H19.9936C20.6362 24.8905 21.0781 24.6813 21.319 24.2629C21.5715 23.8445 21.6977 22.9844 21.6977 21.6827C21.6977 20.4042 21.5658 19.5674 21.3018 19.1722C21.0379 18.7771 20.5559 18.5795 19.8559 18.5795ZM20.028 28.2727H18.0657V35.4554C18.6624 35.4554 19.3338 35.4554 20.0797 35.4554C20.5617 35.4554 20.9403 35.3624 21.2158 35.1764C21.4912 34.9905 21.6805 34.6534 21.7838 34.1653C21.8986 33.6771 21.9559 32.9565 21.9559 32.0035C21.9559 31.0272 21.8986 30.2717 21.7838 29.7371C21.6691 29.2025 21.4682 28.8305 21.1813 28.6213C20.9059 28.3889 20.5215 28.2727 20.028 28.2727Z" fill="#FBFBFB"/>
<path d="M35.5313 14.5C36.4723 14.5 37.2641 14.7092 37.9068 15.1276C38.5609 15.5228 39.0888 16.1969 39.4904 17.1499C39.8921 18.103 40.1847 19.3815 40.3683 20.9854C40.5519 22.5893 40.6437 24.6 40.6437 27.0174C40.6437 29.4349 40.5519 31.4456 40.3683 33.0495C40.1847 34.6534 39.8921 35.9319 39.4904 36.8849C39.0888 37.838 38.5609 38.5121 37.9068 38.9073C37.2641 39.3024 36.4723 39.5 35.5313 39.5C34.5903 39.5 33.7928 39.3024 33.1386 38.9073C32.4845 38.5121 31.9567 37.838 31.555 36.8849C31.1534 35.9319 30.8607 34.6534 30.6771 33.0495C30.505 31.4456 30.4189 29.4349 30.4189 27.0174C30.4189 24.6 30.505 22.5893 30.6771 20.9854C30.8607 19.3815 31.1534 18.103 31.555 17.1499C31.9567 16.1969 32.4845 15.5228 33.1386 15.1276C33.7928 14.7092 34.5903 14.5 35.5313 14.5ZM35.5313 18.6841C34.9231 18.6841 34.4469 18.9282 34.1026 19.4163C33.7698 19.9045 33.5288 20.7529 33.3796 21.9616C33.2419 23.1704 33.1731 24.8556 33.1731 27.0174C33.1731 29.1792 33.2419 30.8645 33.3796 32.0732C33.5288 33.282 33.7698 34.1304 34.1026 34.6185C34.4469 35.0835 34.9231 35.3159 35.5313 35.3159C36.1281 35.3159 36.5986 35.0835 36.9428 34.6185C37.2871 34.1304 37.5281 33.282 37.6658 32.0732C37.8035 30.8645 37.8724 29.1792 37.8724 27.0174C37.8724 24.8556 37.8035 23.1704 37.6658 21.9616C37.5281 20.7529 37.2871 19.9045 36.9428 19.4163C36.5986 18.9282 36.1281 18.6841 35.5313 18.6841Z" fill="#FBFBFB"/>
<path d="M52.498 14.9881C52.7161 14.9881 52.9054 15.116 53.0661 15.3717C53.2382 15.6274 53.353 15.9644 53.4103 16.3828L56.853 39.0467H54.1677L53.2898 32.666H49.193L48.3324 39.0467H45.6471L49.0898 16.3828C49.1471 15.9644 49.2561 15.6274 49.4168 15.3717C49.5889 15.116 49.784 14.9881 50.0021 14.9881H52.498ZM50.7595 21.334L49.7439 28.6911H52.739L51.7406 21.334C51.6832 20.9621 51.6316 20.5786 51.5857 20.1834C51.5513 19.765 51.5168 19.3698 51.4824 18.9979H51.0177C50.9832 19.3698 50.9431 19.765 50.8972 20.1834C50.8513 20.5786 50.8054 20.9621 50.7595 21.334Z" fill="#FBFBFB"/>
<path d="M66.9288 14.6395C67.9731 14.6395 68.8166 14.8603 69.4592 15.302C70.1133 15.7204 70.5896 16.4526 70.8879 17.4986C71.1978 18.5214 71.3527 19.951 71.3527 21.7873C71.3527 23.4842 71.1805 24.8556 70.8363 25.9017C70.5035 26.9245 69.9125 27.5404 69.0633 27.7497V27.924C69.3731 28.0635 69.7002 28.4005 70.0445 28.9351C70.3887 29.4465 70.6297 30.3182 70.7674 31.5502L71.8002 39.0467H69.0461L68.1338 31.6897C68.019 30.9226 67.8583 30.388 67.6518 30.0858C67.4567 29.7836 67.1813 29.6325 66.8255 29.6325C66.0681 29.6325 65.4427 29.6209 64.9493 29.5976V39.0467H62.3673V14.9881C62.8378 14.8952 63.2853 14.8254 63.7099 14.7789C64.1345 14.7325 64.5993 14.6976 65.1042 14.6743C65.6091 14.6511 66.2173 14.6395 66.9288 14.6395ZM66.8772 18.6492C66.1772 18.6492 65.5345 18.6492 64.9493 18.6492V25.6227H66.8772C67.5772 25.6227 68.0592 25.3903 68.3231 24.9254C68.5871 24.4372 68.719 23.4958 68.719 22.1011C68.719 20.7297 68.5871 19.8115 68.3231 19.3466C68.0592 18.8817 67.5772 18.6492 66.8772 18.6492Z" fill="#FBFBFB"/>
<path d="M82.4633 14.6395C83.7141 14.6395 84.7068 15.0114 85.4412 15.7552C86.1871 16.4991 86.7265 17.7659 87.0593 19.5558C87.3921 21.3457 87.5585 23.8329 87.5585 27.0174C87.5585 30.202 87.3921 32.6892 87.0593 34.4791C86.7265 36.2689 86.1871 37.5358 85.4412 38.2796C84.7068 39.0002 83.7141 39.3605 82.4633 39.3605C81.5567 39.3605 80.7247 39.3257 79.9674 39.2559C79.21 39.2094 78.4927 39.1397 77.8157 39.0467V14.9881C78.5042 14.8952 79.2214 14.8138 79.9674 14.7441C80.7133 14.6743 81.5452 14.6395 82.4633 14.6395ZM82.4633 18.719C82.0846 18.719 81.7231 18.719 81.3789 18.719C81.0461 18.719 80.7305 18.7306 80.4321 18.7538V35.2462C81.0518 35.2694 81.7289 35.281 82.4633 35.281C83.06 35.281 83.5248 35.0486 83.8576 34.5837C84.1904 34.0955 84.4256 33.2471 84.5633 32.0384C84.7125 30.8296 84.7871 29.156 84.7871 27.0174C84.7871 24.8789 84.7125 23.2053 84.5633 21.9965C84.4256 20.7878 84.1904 19.9393 83.8576 19.4512C83.5248 18.963 83.06 18.719 82.4633 18.719Z" fill="#FBFBFB"/>
<path d="M97.7767 14.5349C98.362 14.5349 98.9989 14.6046 99.6874 14.7441C100.376 14.8603 101.047 15.1044 101.701 15.4763L101.529 19.0328C101.024 18.9863 100.428 18.9514 99.739 18.9282C99.062 18.9049 98.4021 18.8933 97.7595 18.8933C97.3349 18.8933 96.9906 18.9398 96.7267 19.0328C96.4742 19.1258 96.2906 19.335 96.1758 19.6604C96.0726 19.9626 96.0209 20.474 96.0209 21.1946C96.0209 22.0314 96.1127 22.6358 96.2963 23.0077C96.4914 23.3796 96.8185 23.705 97.2775 23.984L99.5669 25.4833C100.508 26.1574 101.162 27.0523 101.529 28.1681C101.908 29.2606 102.097 30.7134 102.097 32.5265C102.097 34.3629 101.954 35.7924 101.667 36.8152C101.38 37.8147 100.91 38.5121 100.255 38.9073C99.6128 39.3024 98.7521 39.5 97.6734 39.5C97.2832 39.5 96.7267 39.4419 96.0037 39.3257C95.2807 39.2327 94.4602 38.977 93.5422 38.5586L93.6971 34.7929C94.7184 34.8626 95.5332 34.9091 96.1414 34.9324C96.7611 34.9556 97.2718 34.9672 97.6734 34.9672C98.362 34.9672 98.8325 34.8278 99.0849 34.5488C99.3374 34.2466 99.4636 33.5958 99.4636 32.5962C99.4636 31.7362 99.3718 31.1318 99.1882 30.7831C99.0161 30.4345 98.7234 30.1323 98.3103 29.8766L95.9004 28.2029C94.9824 27.5521 94.334 26.6804 93.9553 25.5879C93.5881 24.4954 93.4045 23.0425 93.4045 21.2294C93.4045 19.3931 93.5479 17.9984 93.8348 17.0453C94.1332 16.069 94.6037 15.4066 95.2463 15.0579C95.889 14.7092 96.7324 14.5349 97.7767 14.5349Z" fill="#FBFBFB"/>
<path d="M110.892 14.9881V24.228H115.127V14.9881H117.743V39.0467H115.127V28.2029H110.892V39.0467H108.259V14.9881H110.892Z" fill="#FBFBFB"/>
<path d="M129.18 14.5C130.121 14.5 130.913 14.7092 131.555 15.1276C132.21 15.5228 132.737 16.1969 133.139 17.1499C133.541 18.103 133.833 19.3815 134.017 20.9854C134.201 22.5893 134.292 24.6 134.292 27.0174C134.292 29.4349 134.201 31.4456 134.017 33.0495C133.833 34.6534 133.541 35.9319 133.139 36.8849C132.737 37.838 132.21 38.5121 131.555 38.9073C130.913 39.3024 130.121 39.5 129.18 39.5C128.239 39.5 127.441 39.3024 126.787 38.9073C126.133 38.5121 125.605 37.838 125.204 36.8849C124.802 35.9319 124.509 34.6534 124.326 33.0495C124.154 31.4456 124.068 29.4349 124.068 27.0174C124.068 24.6 124.154 22.5893 124.326 20.9854C124.509 19.3815 124.802 18.103 125.204 17.1499C125.605 16.1969 126.133 15.5228 126.787 15.1276C127.441 14.7092 128.239 14.5 129.18 14.5ZM129.18 18.6841C128.572 18.6841 128.096 18.9282 127.751 19.4163C127.418 19.9045 127.177 20.7529 127.028 21.9616C126.891 23.1704 126.822 24.8556 126.822 27.0174C126.822 29.1792 126.891 30.8645 127.028 32.0732C127.177 33.282 127.418 34.1304 127.751 34.6185C128.096 35.0835 128.572 35.3159 129.18 35.3159C129.777 35.3159 130.247 35.0835 130.591 34.6185C130.936 34.1304 131.177 33.282 131.314 32.0732C131.452 30.8645 131.521 29.1792 131.521 27.0174C131.521 24.8556 131.452 23.1704 131.314 21.9616C131.177 20.7529 130.936 19.9045 130.591 19.4163C130.247 18.9282 129.777 18.6841 129.18 18.6841Z" fill="#FBFBFB"/>
<path d="M145.129 14.6395C146.23 14.6395 147.097 14.8719 147.728 15.3368C148.371 15.8017 148.824 16.6037 149.088 17.7427C149.363 18.8817 149.501 20.474 149.501 22.5195C149.501 24.5651 149.369 26.1574 149.105 27.2964C148.853 28.4354 148.428 29.2257 147.831 29.6674C147.246 30.109 146.46 30.3415 145.473 30.3647C145.083 30.3415 144.693 30.3066 144.302 30.2601C143.924 30.2136 143.557 30.1555 143.201 30.0858V39.0467H140.584V14.9881C141.055 14.8952 141.502 14.8254 141.927 14.7789C142.352 14.7325 142.811 14.6976 143.304 14.6743C143.809 14.6511 144.417 14.6395 145.129 14.6395ZM145.077 18.6492C144.733 18.6492 144.4 18.6492 144.079 18.6492C143.769 18.6492 143.476 18.6492 143.201 18.6492V26.355H145.077C145.766 26.355 146.236 26.0993 146.489 25.5879C146.741 25.0765 146.867 24.0537 146.867 22.5195C146.867 20.9854 146.741 19.9626 146.489 19.4512C146.236 18.9165 145.766 18.6492 145.077 18.6492Z" fill="#FBFBFB"/>
<path d="M35.5313 18.6841C34.9231 18.6841 34.4469 18.9282 34.1026 19.4163C33.7698 19.9045 33.5288 20.7529 33.3796 21.9616C33.2419 23.1704 33.1731 24.8556 33.1731 27.0174C33.1731 29.1792 33.2419 30.8645 33.3796 32.0732C33.5288 33.282 33.7698 34.1304 34.1026 34.6185C34.4469 35.0835 34.9231 35.3159 35.5313 35.3159C36.1281 35.3159 36.5986 35.0835 36.9428 34.6185C37.2871 34.1304 37.5281 33.282 37.6658 32.0732C37.8035 30.8645 37.8724 29.1792 37.8724 27.0174C37.8724 24.8556 37.8035 23.1704 37.6658 21.9616C37.5281 20.7529 37.2871 19.9045 36.9428 19.4163C36.5986 18.9282 36.1281 18.6841 35.5313 18.6841Z" fill="#FBFBFB"/>
<path d="M129.18 18.6841C128.572 18.6841 128.096 18.9282 127.751 19.4163C127.418 19.9045 127.177 20.7529 127.028 21.9616C126.891 23.1704 126.822 24.8556 126.822 27.0174C126.822 29.1792 126.891 30.8645 127.028 32.0732C127.177 33.282 127.418 34.1304 127.751 34.6185C128.096 35.0835 128.572 35.3159 129.18 35.3159C129.777 35.3159 130.247 35.0835 130.591 34.6185C130.936 34.1304 131.177 33.282 131.314 32.0732C131.452 30.8645 131.521 29.1792 131.521 27.0174C131.521 24.8556 131.452 23.1704 131.314 21.9616C131.177 20.7529 130.936 19.9045 130.591 19.4163C130.247 18.9282 129.777 18.6841 129.18 18.6841Z" fill="#FBFBFB"/>
<path fill-rule="evenodd" clip-rule="evenodd" d="M4.10651 0.584551L4.1369 0.609988L4.23182 0.68918C4.31582 0.759152 4.44045 0.862707 4.60097 0.995398C4.92209 1.26083 5.38653 1.64256 5.95661 2.10507C7.09794 3.03105 8.65709 4.27623 10.334 5.5581C12.0157 6.84359 13.792 8.1477 15.3726 9.20001C16.9629 10.2588 18.1347 10.9107 18.7709 11.1387C18.8093 11.1446 18.8975 11.1578 19.0529 11.1747C19.3426 11.2062 19.7502 11.2395 20.282 11.2733C21.3416 11.3406 22.8072 11.4043 24.6338 11.4637C28.2822 11.5824 33.2991 11.6817 39.2383 11.7613C51.1127 11.9204 66.6269 12 82.1504 12C97.6739 12 113.196 11.9204 125.087 11.7613C131.034 11.6817 136.061 11.5824 139.721 11.4637C141.554 11.4043 143.026 11.3406 144.093 11.2732C144.629 11.2395 145.041 11.2061 145.335 11.1744C145.513 11.1552 145.607 11.1406 145.64 11.1357C146.307 10.9101 147.366 10.343 148.718 9.45629C150.064 8.57261 151.526 7.48997 152.892 6.42329C154.254 5.36031 155.495 4.33329 156.397 3.57076C156.848 3.19007 157.212 2.87672 157.462 2.65954C157.588 2.55098 157.684 2.46654 157.749 2.40983L157.822 2.34605L157.839 2.33063L157.843 2.32718L157.844 2.3265C158.878 1.41183 160.458 1.50862 161.372 2.54272C162.287 3.57688 162.191 5.15683 161.156 6.07165L159.5 4.19915C161.156 6.07165 161.156 6.07165 161.156 6.07165L161.155 6.07248L161.154 6.07405L161.126 6.09862L161.044 6.17036C160.973 6.2325 160.87 6.3227 160.738 6.43732C160.473 6.66648 160.093 6.99361 159.625 7.38948C158.689 8.18005 157.396 9.25037 155.969 10.3644C154.547 11.4747 152.967 12.6487 151.461 13.6367C150.009 14.5892 148.433 15.5002 147.066 15.9295C146.67 16.0536 146.195 16.1107 145.871 16.1456C145.472 16.1886 144.977 16.2274 144.408 16.2633C143.266 16.3354 141.735 16.4011 139.883 16.4611C136.176 16.5813 131.112 16.6811 125.153 16.7609C113.233 16.9204 97.6872 17 82.1504 17C66.6136 17 51.0756 16.9204 39.1713 16.7609C33.2211 16.6811 28.1671 16.5813 24.4712 16.4611C22.6258 16.4011 21.1008 16.3354 19.9652 16.2633C19.3993 16.2273 18.908 16.1885 18.5118 16.1453C18.1961 16.111 17.7121 16.053 17.3093 15.9225C15.9586 15.4846 14.232 14.4474 12.6017 13.362C10.8925 12.224 9.01946 10.8467 7.29751 9.53045C5.57084 8.21056 3.97209 6.93362 2.80643 5.98791C2.22301 5.51458 1.74668 5.12308 1.4154 4.84924C1.24973 4.7123 1.12024 4.60471 1.03169 4.53094L0.930119 4.4462L0.894359 4.41628L0.893647 4.41551C-0.164243 3.52825 -0.302767 1.95139 0.584495 0.8935C1.47174 -0.164371 3.04862 -0.302658 4.10651 0.584551Z" fill="#FBFBFB"/>
</svg>
